<svg xmlns="http://www.w3.org/2000/svg" width="160.744" height="165.863" viewBox="0 0 160.744 165.863">
  <g id="_04" data-name="04" transform="translate(-1080.12 -260)">
    <ellipse id="Ellipse_14" data-name="Ellipse 14" cx="68.929" cy="8.626" rx="68.929" ry="8.626" transform="translate(1099.987 408.612)" fill="#ffe3c2"/>
    <ellipse id="Ellipse_15" data-name="Ellipse 15" cx="80.372" cy="67.52" rx="80.372" ry="67.52" transform="translate(1080.12 260)" fill="#ffe3c2"/>
    <path id="Path_381" data-name="Path 381" d="M1222.916,421.411V440.68h-18.732v-18.8h-8.776v10.188h-5.354V414.6h-13.329v7.008h-9.893V403.28h-8.59v16.171h-7.32V411.9h-6.64v8.357h-4.407V417.3h-23.419V468.2h-6.469V444.229H1088.7v13.492h-8.437c-.089,1.3-.14,2.616-.14,3.939,0,37.29,35.984,67.52,80.372,67.52s80.372-30.227,80.372-67.52c0-15.144-5.933-29.124-15.958-40.387Z" transform="translate(0 -134.14)" fill="#fff5e2"/>
    <path id="Path_382" data-name="Path 382" d="M1250.733,1766.554c33.449,0,62.121-17.167,74.224-41.584H1176.51C1188.612,1749.387,1217.284,1766.554,1250.733,1766.554Z" transform="translate(-90.241 -1371.515)" fill="#ffe3c2"/>
    <path id="Path_383" data-name="Path 383" d="M1282.961,516.49q-1.7-1.378-3.5-2.67v73.757H1172.428v-71.8q-1.8,1.413-3.5,2.915v68.887h-17.5q.743,1.775,1.6,3.5h148.447q.856-1.728,1.6-3.5h-20.1Z" transform="translate(-66.752 -237.628)" fill="#ffcc9c"/>
    <path id="Path_384" data-name="Path 384" d="M1401.03,658.235h1.58V589.29l-1.58,1.5Z" transform="translate(-300.438 -308.284)" fill="#ffb083"/>
    <path id="Path_385" data-name="Path 385" d="M3146.94,569.763h1.58V496l-1.58-1.215Z" transform="translate(-1934.971 -219.812)" fill="#ffb083"/>
    <rect id="Rectangle_126" data-name="Rectangle 126" width="4.95" height="66.796" transform="translate(1135.126 283.155)" fill="#ffebd6"/>
    <rect id="Rectangle_127" data-name="Rectangle 127" width="4.95" height="69.491" transform="translate(1185.121 280.46)" fill="#ffebd6"/>
    <rect id="Rectangle_128" data-name="Rectangle 128" width="3.639" height="62.135" transform="translate(1200.582 287.816)" fill="#ffebd6"/>
    <rect id="Rectangle_129" data-name="Rectangle 129" width="3.639" height="62.484" transform="translate(1173.092 287.467)" fill="#ffebd6"/>
    <rect id="Rectangle_130" data-name="Rectangle 130" width="3.639" height="80.812" transform="translate(1163.254 269.14)" fill="#ffebd6"/>
    <rect id="Rectangle_131" data-name="Rectangle 131" width="3.032" height="7.357" transform="translate(1119.66 287.467)" fill="#fffffe"/>
    <rect id="Rectangle_132" data-name="Rectangle 132" width="3.032" height="7.357" transform="translate(1119.66 300.444)" fill="#fffffe"/>
    <rect id="Rectangle_133" data-name="Rectangle 133" width="3.032" height="7.357" transform="translate(1125.724 287.467)" fill="#fffffe"/>
    <rect id="Rectangle_134" data-name="Rectangle 134" width="3.032" height="7.357" transform="translate(1125.724 300.444)" fill="#fffffe"/>
    <rect id="Rectangle_135" data-name="Rectangle 135" width="1.643" height="3.985" transform="translate(1154.411 290.277)" fill="#fffffe"/>
    <rect id="Rectangle_136" data-name="Rectangle 136" width="1.643" height="3.985" transform="translate(1154.411 297.307)" fill="#fffffe"/>
    <rect id="Rectangle_137" data-name="Rectangle 137" width="1.643" height="3.985" transform="translate(1154.411 305.538)" fill="#fffffe"/>
    <rect id="Rectangle_138" data-name="Rectangle 138" width="1.643" height="3.985" transform="translate(1154.411 312.568)" fill="#fffffe"/>
    <rect id="Rectangle_139" data-name="Rectangle 139" width="1.643" height="3.985" transform="translate(1154.411 319.971)" fill="#fffffe"/>
    <rect id="Rectangle_140" data-name="Rectangle 140" width="1.643" height="3.985" transform="translate(1154.411 327.001)" fill="#fffffe"/>
    <rect id="Rectangle_141" data-name="Rectangle 141" width="1.643" height="3.985" transform="translate(1179.283 283.768)" fill="#fffffe"/>
    <rect id="Rectangle_142" data-name="Rectangle 142" width="1.643" height="3.985" transform="translate(1179.283 290.798)" fill="#fffffe"/>
    <rect id="Rectangle_143" data-name="Rectangle 143" width="1.643" height="3.985" transform="translate(1179.283 299.029)" fill="#fffffe"/>
    <rect id="Rectangle_144" data-name="Rectangle 144" width="1.643" height="3.985" transform="translate(1179.283 306.059)" fill="#fffffe"/>
    <rect id="Rectangle_145" data-name="Rectangle 145" width="1.643" height="3.985" transform="translate(1179.283 313.461)" fill="#fffffe"/>
    <rect id="Rectangle_146" data-name="Rectangle 146" width="1.643" height="3.985" transform="translate(1179.283 320.491)" fill="#fffffe"/>
    <rect id="Rectangle_147" data-name="Rectangle 147" width="1.643" height="3.985" transform="translate(1149.465 290.277)" fill="#fffffe"/>
    <rect id="Rectangle_148" data-name="Rectangle 148" width="1.643" height="3.985" transform="translate(1149.465 297.307)" fill="#fffffe"/>
    <rect id="Rectangle_149" data-name="Rectangle 149" width="1.643" height="3.985" transform="translate(1149.465 305.538)" fill="#fffffe"/>
    <rect id="Rectangle_150" data-name="Rectangle 150" width="1.643" height="3.985" transform="translate(1149.465 312.568)" fill="#fffffe"/>
    <rect id="Rectangle_151" data-name="Rectangle 151" width="1.643" height="3.985" transform="translate(1149.465 319.971)" fill="#fffffe"/>
    <rect id="Rectangle_152" data-name="Rectangle 152" width="1.643" height="3.985" transform="translate(1149.465 327.001)" fill="#fffffe"/>
    <g id="Group_10" data-name="Group 10" transform="translate(1105.676 267.457)" opacity="0.41">
      <path id="Path_386" data-name="Path 386" d="M1480.73,436.443v22.95h42.081l64.212-46.937V384.421L1572.3,376.9Z" transform="translate(-1480.73 -376.9)" fill="#fff"/>
    </g>
    <rect id="Rectangle_153" data-name="Rectangle 153" width="62.701" height="121.531" rx="31.35" transform="translate(1124.124 293.203)" fill="#666800"/>
    <rect id="Rectangle_154" data-name="Rectangle 154" width="52.44" height="98.559" rx="26.22" transform="translate(1129.255 299.861)" fill="#fff6e7"/>
    <circle id="Ellipse_16" data-name="Ellipse 16" cx="4.041" cy="4.041" r="4.041" transform="translate(1150.608 402.536) rotate(-13.28)" fill="#333900"/>
    <rect id="Rectangle_155" data-name="Rectangle 155" width="13.295" height="2.057" rx="1.029" transform="translate(1148.827 295.513)" fill="#333900"/>
    <path id="Path_387" data-name="Path 387" d="M2141.67,1158.207c.039.161.952,7.048.952,7.048l1.306.788h17.047l-.025-1.049.233-9.145Z" transform="translate(-993.83 -838.701)"/>
    <path id="Path_388" data-name="Path 388" d="M2017.389,1458.188l-3.185-1.375-.136-.134a3.9,3.9,0,0,0-2.645-1.125l-6.694-.164-1.595.459a5.608,5.608,0,0,0-2,1.047l-.34.278a5.218,5.218,0,0,1-1.751.943l-.88.274a14.632,14.632,0,0,0-9.155,8.352l-.3.73H2023.5l-.187-1.439A9.94,9.94,0,0,0,2017.389,1458.188Z" transform="translate(-850.628 -1119.132)" fill="#ff8b00"/>
    <path id="Path_389" data-name="Path 389" d="M2239.82,1342.4a2.958,2.958,0,0,0,2.958,2.957h1.363a2.957,2.957,0,0,0,2.958-2.958v-4.319h-7.278Z" transform="translate(-1085.719 -1009.306)"/>
    <path id="Path_390" data-name="Path 390" d="M2237.59,1268.29a1.02,1.02,0,1,0,.759.986A.9.9,0,0,0,2237.59,1268.29Z" transform="translate(-1082.92 -943.968)"/>
    <ellipse id="Ellipse_17" data-name="Ellipse 17" cx="0.759" cy="0.986" rx="0.759" ry="0.986" transform="translate(1161.379 324.322)"/>
    <path id="Path_391" data-name="Path 391" d="M2217.667,1229.36a2.889,2.889,0,0,0-1.947,1.194.447.447,0,1,0,.729.517,1.966,1.966,0,0,1,1.254-.817,1.306,1.306,0,0,1,1.009.583.447.447,0,0,0,.689-.57A2.137,2.137,0,0,0,2217.667,1229.36Z" transform="translate(-1063.08 -907.52)"/>
    <path id="Path_392" data-name="Path 392" d="M2341.243,1229.764a2.882,2.882,0,0,0-2.183.67.447.447,0,1,0,.579.683,2.027,2.027,0,0,1,1.414-.479,1.3,1.3,0,0,1,.834.817.448.448,0,0,0,.81-.383A2.134,2.134,0,0,0,2341.243,1229.764Z" transform="translate(-1178.48 -907.861)"/>
    <path id="Path_393" data-name="Path 393" d="M2314.662,1263.143v-2.3a.127.127,0,0,0-.25,0v2.348a.128.128,0,0,0,.038.09l.176.17a1.437,1.437,0,0,1,0,2.062l-.171.166a.128.128,0,1,0,.177.18l.171-.166a1.687,1.687,0,0,0,0-2.424Z" transform="translate(-1155.538 -936.902)"/>
    <path id="Path_394" data-name="Path 394" d="M2272.721,1352.883l-.73.252a4.829,4.829,0,0,1-4.015-.4l-.287-.168a.128.128,0,0,0-.127.217l.286.167a5.08,5.08,0,0,0,4.224.421l.731-.251a.128.128,0,0,0-.082-.237Z" transform="translate(-1111.648 -1022.86)"/>
    <ellipse id="Ellipse_18" data-name="Ellipse 18" cx="8.592" cy="4.302" rx="8.592" ry="4.302" transform="translate(1150.602 312.229)"/>
    <circle id="Ellipse_19" data-name="Ellipse 19" cx="2.762" cy="2.762" r="2.762" transform="translate(1147.84 316.465)"/>
    <path id="Path_395" data-name="Path 395" d="M2209.346,1086.955a12.272,12.272,0,0,0-6.811,1.26,5.6,5.6,0,0,0-1.9,1.637.167.167,0,0,0,.284.178,5.4,5.4,0,0,1,1.805-1.537,11.971,11.971,0,0,1,6.6-1.2.167.167,0,0,0,.023-.334Z" transform="translate(-1049.008 -774.161)" fill="#fff"/>
    <path id="Path_396" data-name="Path 396" d="M2141.67,1158.207c.039.161.952,7.048.952,7.048l1.306.788h17.047l-.025-1.049.233-9.145Z" transform="translate(-993.83 -838.701)" fill="#7e1518"/>
    <path id="Path_397" data-name="Path 397" d="M2239.82,1399.44a2.957,2.957,0,0,0,2.958,2.957h1.363a2.957,2.957,0,0,0,2.958-2.958v-4.319h-7.278Z" transform="translate(-1085.719 -1062.707)" fill="#ff9a74"/>
    <path id="Path_398" data-name="Path 398" d="M2239.82,1342.4a2.958,2.958,0,0,0,2.958,2.957h1.363a2.957,2.957,0,0,0,2.958-2.958v-4.319h-7.278Z" transform="translate(-1085.719 -1009.306)" fill="#ff5518"/>
    <path id="Path_399" data-name="Path 399" d="M2186.368,1169.89H2176.31a3.209,3.209,0,0,0-3.209,3.209v5.869a6.94,6.94,0,0,0,6.941,6.941h2.6a6.939,6.939,0,0,0,6.939-6.939V1173.1A3.209,3.209,0,0,0,2186.368,1169.89Z" transform="translate(-1023.255 -851.845)" fill="#ff9a74"/>
    <path id="Path_400" data-name="Path 400" d="M2419.561,1298.182c-.574-.374-1.522.069-2.125.99s-.628,1.969-.057,2.343,1.523-.069,2.125-.989S2420.131,1298.557,2419.561,1298.182Z" transform="translate(-1251.565 -971.829)" fill="#ff9a74"/>
    <path id="Path_401" data-name="Path 401" d="M2427.576,1316.692l-1.171,1.284a.181.181,0,1,0,.268.244l1.171-1.284a.181.181,0,0,0-.268-.245Z" transform="translate(-1260.357 -989.227)" fill="#ff5518"/>
    <path id="Path_402" data-name="Path 402" d="M2136.784,1289.212c-.547.408-.459,1.454.2,2.335s1.634,1.266,2.181.859.459-1.454-.2-2.335S2137.331,1288.8,2136.784,1289.212Z" transform="translate(-988.92 -963.403)" fill="#ff9a74"/>
    <path id="Path_403" data-name="Path 403" d="M2154.4,1305.216a.181.181,0,0,0-.319.168l.8,1.541a.181.181,0,1,0,.321-.168Z" transform="translate(-1005.435 -978.462)" fill="#ff5518"/>
    <path id="Path_404" data-name="Path 404" d="M2237.59,1268.29a1.02,1.02,0,1,0,.759.986A.9.9,0,0,0,2237.59,1268.29Z" transform="translate(-1082.92 -943.968)" fill="#bb3618"/>
    <ellipse id="Ellipse_20" data-name="Ellipse 20" cx="0.759" cy="0.986" rx="0.759" ry="0.986" transform="translate(1161.379 324.322)" fill="#bb3618"/>
    <path id="Path_405" data-name="Path 405" d="M2217.1,1228.777a2.923,2.923,0,0,0-1.978,1.212.485.485,0,0,0,.791.561,1.927,1.927,0,0,1,1.225-.8,1.3,1.3,0,0,1,.979.57.485.485,0,1,0,.747-.617A2.153,2.153,0,0,0,2217.1,1228.777Z" transform="translate(-1062.51 -906.974)" fill="#7e1518"/>
    <path id="Path_406" data-name="Path 406" d="M2340.869,1229.184a2.916,2.916,0,0,0-2.215.678.485.485,0,0,0,.625.74,1.927,1.927,0,0,1,1.387-.471,1.272,1.272,0,0,1,.8.8.485.485,0,0,0,.878-.412A2.184,2.184,0,0,0,2340.869,1229.184Z" transform="translate(-1178.098 -907.317)" fill="#7e1518"/>
    <path id="Path_407" data-name="Path 407" d="M2312.827,1260.749v-2.233a.266.266,0,1,0-.533,0v2.348a.268.268,0,0,0,.08.191l.176.171a1.295,1.295,0,0,1,0,1.859l-.171.165a.267.267,0,1,0,.371.383l.172-.165a1.829,1.829,0,0,0,0-2.624Z" transform="translate(-1153.562 -934.568)" fill="#ff5518"/>
    <path id="Path_408" data-name="Path 408" d="M2270.38,1350.546l-.73.251a4.688,4.688,0,0,1-3.9-.389l-.286-.168a.267.267,0,0,0-.27.46l.286.168a5.222,5.222,0,0,0,4.338.432l.73-.251a.267.267,0,0,0-.173-.5Z" transform="translate(-1109.353 -1020.657)" fill="#ff5518"/>
    <path id="Path_409" data-name="Path 409" d="M2110.942,1592.547a.138.138,0,1,0-.268.064l.732,3.2a.138.138,0,0,0,.134.107h.03a.139.139,0,0,0,.1-.165Z" transform="translate(-964.809 -1247.44)" fill="#ff5b00"/>
    <path id="Path_410" data-name="Path 410" d="M2126.6,1595.51a.139.139,0,0,0-.1.04.137.137,0,0,0-.041.1v1.634a.138.138,0,0,0,.275,0v-1.634A.137.137,0,0,0,2126.6,1595.51Z" transform="translate(-979.591 -1250.313)" fill="#ff5b00"/>
    <path id="Path_411" data-name="Path 411" d="M2110.942,1592.547a.138.138,0,1,0-.268.064l.732,3.2a.138.138,0,0,0,.134.107h.03a.139.139,0,0,0,.1-.165Z" transform="translate(-964.809 -1247.44)" fill="#ff5b00"/>
    <path id="Path_412" data-name="Path 412" d="M2126.6,1595.51a.139.139,0,0,0-.1.04.137.137,0,0,0-.041.1v1.634a.138.138,0,0,0,.275,0v-1.634A.137.137,0,0,0,2126.6,1595.51Z" transform="translate(-979.591 -1250.313)" fill="#ff5b00"/>
    <ellipse id="Ellipse_21" data-name="Ellipse 21" cx="8.592" cy="4.302" rx="8.592" ry="4.302" transform="translate(1150.602 312.229)" fill="#7e1518"/>
    <circle id="Ellipse_22" data-name="Ellipse 22" cx="2.762" cy="2.762" r="2.762" transform="translate(1147.84 316.465)" fill="#7e1518"/>
    <path id="Path_413" data-name="Path 413" d="M2206.339,1083.708c-6.645-.468-8.812,2.85-8.9,2.992a.373.373,0,1,0,.629.4,5.38,5.38,0,0,1,1.8-1.5,11.773,11.773,0,0,1,6.418-1.148h.008a.373.373,0,0,0,.045-.744Z" transform="translate(-1045.987 -771.119)" fill="#bb3618"/>
    <path id="Path_416" data-name="Path 416" d="M1922.885,1674.45h-6.474v-7.542a.746.746,0,0,0-1.491,0v8.287a.745.745,0,0,0,.745.745h7.22a.746.746,0,0,0,0-1.491Z" transform="translate(-781.545 -1316.479)" fill="#b3b300"/>
    <path id="Path_417" data-name="Path 417" d="M2479.131,1657a.746.746,0,0,0-.746.746v8.106h-5.909a.746.746,0,1,0,0,1.491h6.655a.745.745,0,0,0,.745-.745v-8.853A.745.745,0,0,0,2479.131,1657Z" transform="translate(-1302.814 -1307.881)" fill="#b3b300"/>
    <circle id="Ellipse_23" data-name="Ellipse 23" cx="9.259" cy="9.259" r="9.259" transform="translate(1144.509 379.795) rotate(-45)" fill="#b3b300"/>
    <path id="Path_418" data-name="Path 418" d="M2244.488,2063.591a.8.8,0,0,0-1.05.422l-2.905,6.811-2.353-2.285a.8.8,0,1,0-1.115,1.148l3.19,3.1a.8.8,0,0,0,.557.227.863.863,0,0,0,.158-.016.8.8,0,0,0,.578-.471l3.362-7.882A.8.8,0,0,0,2244.488,2063.591Z" transform="translate(-1082.898 -1688.474)" fill="#fff"/>
    <rect id="Rectangle_156" data-name="Rectangle 156" width="39.214" height="0.533" transform="translate(1136.733 339.424)" fill="#666800"/>
    <circle id="Ellipse_24" data-name="Ellipse 24" cx="1.649" cy="1.649" r="1.649" transform="translate(1134.609 340.817) rotate(-67.5)" fill="#666800"/>
    <g id="Group_11" data-name="Group 11" transform="translate(1129.255 308.063)" opacity="0.3">
      <path id="Path_419" data-name="Path 419" d="M1850.34,1083.887l52.185-32.843.223-37.633-52.407,30.372Z" transform="translate(-1850.34 -1013.41)" fill="#fff"/>
    </g>
    <path id="Path_420" data-name="Path 420" d="M1661.438,1690.657l.5-9.968.4-6.8-2.954,9.036a25.007,25.007,0,0,0-1.183,6.135l-.6,9.23-.5,25.408h3.076l5.091-11.719-2.656-10.058A36.846,36.846,0,0,1,1661.438,1690.657Z" transform="translate(-540.173 -1323.693)" fill="#eac754"/>
    <path id="Path_421" data-name="Path 421" d="M1669.413,1857.97l.366-7.246.293-4.943-2.147,6.571a18.13,18.13,0,0,0-.861,4.46l-.438,6.708-.366,18.471h2.237l3.7-8.52-1.931-7.313A26.765,26.765,0,0,1,1669.413,1857.97Z" transform="translate(-548.748 -1484.618)" fill="#666800"/>
    <path id="Path_422" data-name="Path 422" d="M1523.8,1698l-.3-.535a15.413,15.413,0,0,1-1.88-6.213l-.446-5.493a7.262,7.262,0,0,0-1.659-4.054h0a14.791,14.791,0,0,1-2.734-5l-.889-2.812v6.927a5.573,5.573,0,0,1-.133,1.211l-.224,1.011a16.113,16.113,0,0,0,.277,8.043c.4,1.351.829,2.887,1.174,4.139a11.106,11.106,0,0,1,.219,4.942l-.192,1.06a15.318,15.318,0,0,0,.149,6.2l3.771,16.274h6.353l-.552-15.137A23.561,23.561,0,0,0,1523.8,1698Z" transform="translate(-407.289 -1323.693)" fill="#eac754"/>
    <path id="Path_423" data-name="Path 423" d="M1542.641,1782.6l-.248-.47a14.054,14.054,0,0,1-1.576-5.468l-.377-4.834a6.572,6.572,0,0,0-1.389-3.569h0a13.221,13.221,0,0,1-2.292-4.4l-.746-2.475v6.1a5.157,5.157,0,0,1-.111,1.067l-.188.889a14.848,14.848,0,0,0,.232,7.081c.334,1.189.7,2.542.985,3.643a10.254,10.254,0,0,1,.184,4.35l-.161.933a14.149,14.149,0,0,0,.128,5.458l3.163,14.323h5.327l-.462-13.323A21.533,21.533,0,0,0,1542.641,1782.6Z" transform="translate(-426.231 -1405.602)" fill="#666800"/>
    <path id="Path_424" data-name="Path 424" d="M1669.4,2104.694a6.783,6.783,0,0,0-2.728,5.437h0a2.122,2.122,0,0,1-.974,1.786l-.11.072a13.883,13.883,0,0,0-4.853,5.432l-3.641,7.283h4.083l2.412-.919a8.9,8.9,0,0,0,5.66-7.213l.181-1.445a10.713,10.713,0,0,1,1.34-4.015l.74-1.289a7.6,7.6,0,0,0,1.008-3.781v-3.823A31.6,31.6,0,0,1,1669.4,2104.694Z" transform="translate(-540.163 -1724.699)" fill="#eac754"/>
    <path id="Path_425" data-name="Path 425" d="M1688.854,2189.792a5.132,5.132,0,0,0-2.065,4.115h0a1.607,1.607,0,0,1-.737,1.353l-.083.054a10.5,10.5,0,0,0-3.673,4.111l-2.756,5.511h3.091l1.825-.7a6.731,6.731,0,0,0,4.284-5.459l.137-1.094a8.116,8.116,0,0,1,1.016-3.038l.56-.976a5.74,5.74,0,0,0,.766-2.861v-2.894A25.318,25.318,0,0,1,1688.854,2189.792Z" transform="translate(-561.181 -1804.932)" fill="#b3b300"/>
    <path id="Path_426" data-name="Path 426" d="M1422.481,1950.9h0a18.783,18.783,0,0,1-2.827-5.257l-4.353-12.549.542,11.6a48.891,48.891,0,0,0,4.791,18.933l1.321,2.743h7.562l-1.382-4.493A35.006,35.006,0,0,0,1422.481,1950.9Z" transform="translate(-313.798 -1566.358)" fill="#eac754"/>
    <path id="Path_427" data-name="Path 427" d="M1463.754,2072h0a14.268,14.268,0,0,1-2.148-3.994l-3.307-9.532.412,8.81a37.135,37.135,0,0,0,3.636,14.383l1,2.082h5.741l-1.05-3.413A26.587,26.587,0,0,0,1463.754,2072Z" transform="translate(-354.055 -1683.74)" fill="#b3b300"/>
    <path id="Path_428" data-name="Path 428" d="M1471.426,2466.614h10.738l4.991-18.034H1465.88Z" transform="translate(-361.151 -2048.963)" fill="#bb3618"/>
    <path id="Path_429" data-name="Path 429" d="M1489.057,2523.973h14.273l2.12-7.663H1486.7Z" transform="translate(-380.643 -2112.373)" fill="#7e1518"/>
    <path id="Path_430" data-name="Path 430" d="M2641.979,2121.66v-3.49h-4.645v3.805l-4.956,1.892a2.179,2.179,0,0,0-1.192,1.1h0a.843.843,0,0,0,.762,1.2h8.421a2.139,2.139,0,0,0,2.076-2.658Z" transform="translate(-1452.044 -1739.631)" fill="#ff7951"/>
    <path id="Path_431" data-name="Path 431" d="M2728.75,2119.823l4.645,1.837v-3.49h-4.645Z" transform="translate(-1543.458 -1739.631)" fill="#ff5518"/>
    <path id="Path_432" data-name="Path 432" d="M2476.05,2133.651v-3.49h-4.645v3.805l-4.956,1.892a2.178,2.178,0,0,0-1.192,1.1h0a.842.842,0,0,0,.761,1.2h8.421a2.139,2.139,0,0,0,2.075-2.658Z" transform="translate(-1296.699 -1750.856)" fill="#ff9a74"/>
    <path id="Path_433" data-name="Path 433" d="M2562.82,2131.814l4.645,1.836v-3.49h-4.645Z" transform="translate(-1388.113 -1750.856)" fill="#ff5518"/>
    <path id="Path_434" data-name="Path 434" d="M2791.712,1031.1l-9.628,3.126-.238,3.646-.392.566a1.164,1.164,0,0,0,.134,1.485l.625.625.807,1.931a2.58,2.58,0,0,0,2.381,1.585h1.8l.63,2.1,5.826-1.732-.472-3.726Z" transform="translate(-1592.607 -721.909)" fill="#ff9a74"/>
    <path id="Path_435" data-name="Path 435" d="M2797.41,983.954a7.878,7.878,0,0,0-2.958-4.88l-.986-.756a3.842,3.842,0,0,0-3.495-.619l-3.9,1.228a3.467,3.467,0,0,0-1.874,1.428h0q-.086.135-.16.274a3.345,3.345,0,0,0,1.879,4.608l.651.245.056,2.279a.719.719,0,0,0,.93.67l.706-.218h1.226a2.041,2.041,0,0,1,1.461.617l2.323,2.385a1.705,1.705,0,0,0,1.418.377h0a1.708,1.708,0,0,0,1.25-.991l.926-2.105a7.885,7.885,0,0,0,.547-4.538Z" transform="translate(-1594.886 -671.749)" fill="#7e1518"/>
    <path id="Path_436" data-name="Path 436" d="M2916.136,990.661a6.164,6.164,0,0,0-1.983-1.24.192.192,0,0,0-.119.365,5.937,5.937,0,0,1,1.862,1.175,8.382,8.382,0,0,1,2.552,4.775.191.191,0,0,0,.188.156.183.183,0,0,0,.036,0,.191.191,0,0,0,.152-.225A8.754,8.754,0,0,0,2916.136,990.661Z" transform="translate(-1716.799 -682.88)" fill="#bb3618"/>
    <ellipse id="Ellipse_25" data-name="Ellipse 25" cx="1.706" cy="1.058" rx="1.706" ry="1.058" transform="translate(1192.554 317.697) rotate(-69.91)" fill="#ff9a74"/>
    <path id="Path_437" data-name="Path 437" d="M2858.533,1135.009a.191.191,0,0,0-.265.075l-.727,1.3a.2.2,0,1,0,.34.191l.726-1.3a.192.192,0,0,0-.075-.266Z" transform="translate(-1664.011 -819.165)" fill="#ff5518"/>
    <path id="Path_438" data-name="Path 438" d="M2800.389,1115c-.159,0-.288.271-.288.6s.127.6.288.6.289-.27.289-.6S2800.548,1115,2800.389,1115Z" transform="translate(-1610.257 -800.457)" fill="#bb3618"/>
    <path id="Path_439" data-name="Path 439" d="M2800.758,1096.448a.524.524,0,0,0-.638.34c-.038.236.191.468.5.516a.525.525,0,0,0,.638-.34C2801.3,1096.728,2801.074,1096.5,2800.758,1096.448Z" transform="translate(-1610.272 -783.08)" fill="#bb3618"/>
    <path id="Path_440" data-name="Path 440" d="M2875.137,1226.441l-.587.45.563,1.312.44-1.476a.266.266,0,0,0-.417-.286Z" transform="translate(-1679.957 -904.737)" fill="#ff5518"/>
    <path id="Path_441" data-name="Path 441" d="M2727.582,1243.789a27.441,27.441,0,0,0-3.026-10.071l-.471-.893a3.986,3.986,0,0,0-2.871-2.075h0a11.651,11.651,0,0,0-6.507.786h0a11.65,11.65,0,0,0-5.869,5.588l-5.008,10.238,5.987,4.4-.663,8.4a3.855,3.855,0,0,0,1.368,3.258l2.08,1.742a13.1,13.1,0,0,0,12.92,2.252h0l2.024-17.819a27.47,27.47,0,0,0,.041-5.809Z" transform="translate(-1520.128 -908.675)" fill="#ff8b00"/>
    <path id="Path_442" data-name="Path 442" d="M2512.912,1507.124l-7.485,8.76-1.492.825a3.246,3.246,0,0,0-1.675,2.84v1.58l4.218-1.386a8.83,8.83,0,0,0,2.587-1.358l8.856-6.724a6.821,6.821,0,0,0,1.96-2.354l2.292-4.542-6.466-4.474Z" transform="translate(-1331.417 -1161.168)" fill="#ff9a74"/>
    <path id="Path_443" data-name="Path 443" d="M2703.73,1501.745l5.677,5.312,1.384-2.292-6.466-4.474Z" transform="translate(-1520.035 -1161.168)" fill="#ff5518"/>
    <rect id="Rectangle_157" data-name="Rectangle 157" width="1.923" height="0.533" transform="translate(1181.437 345.702) rotate(-12.12)" fill="#ff5518"/>
    <path id="Path_444" data-name="Path 444" d="M2669.24,1891.24l3.07,15.733h5.986l-.614-15.733Z" transform="translate(-1487.745 -1527.178)" fill="#7e1518"/>
    <path id="Path_445" data-name="Path 445" d="M2516.451,1712.4l-2.081-1.741a3.851,3.851,0,0,1-1.332-2.355h0l-14.442,4.25a5.957,5.957,0,0,0-4.12,7.066l3.943,16.931,5.448-.383-.383-16.193h14.174l6.03-.41.056,0a4.968,4.968,0,0,0,4.479-4.551A13.1,13.1,0,0,1,2516.451,1712.4Z" transform="translate(-1323.983 -1355.908)" fill="#bb3618"/>
    <path id="Path_446" data-name="Path 446" d="M2669.24,1891.24l8.628,4.76-.186-4.76Z" transform="translate(-1487.745 -1527.178)" fill="#310000"/>
    <path id="Path_447" data-name="Path 447" d="M2598.978,1858.179l-2.38-1.382a.2.2,0,1,0-.2.349l2.379,1.383a.205.205,0,0,0,.1.027.2.2,0,0,0,.1-.378Z" transform="translate(-1419.453 -1494.906)" fill="#7e1518"/>
    <path id="Path_448" data-name="Path 448" d="M2598.207,1895.294l-1.765.46a.2.2,0,0,0,.05.4.212.212,0,0,0,.052-.006l1.765-.461a.2.2,0,0,0-.1-.392Z" transform="translate(-1419.449 -1530.967)" fill="#7e1518"/>
    <path id="Path_449" data-name="Path 449" d="M2770.716,1712.828l-2.08-1.742a3.851,3.851,0,0,1-1.326-2.326c-.84.227-1.4.383-1.4.383h0s5.323,9.22,15.037,9.509a5.126,5.126,0,0,0,1.541-3.214A13.1,13.1,0,0,1,2770.716,1712.828Z" transform="translate(-1578.248 -1356.339)" fill="#7e1518"/>
    <rect id="Rectangle_158" data-name="Rectangle 158" width="23.613" height="3.18" transform="translate(1186.023 364.062)" fill="#310000"/>
    <path id="Path_450" data-name="Path 450" d="M2587.508,1932.784a.532.532,0,0,0-.642.4l-12.937,54.712a.533.533,0,0,0,.4.642.52.52,0,0,0,.123.014.533.533,0,0,0,.518-.411l12.937-54.716A.534.534,0,0,0,2587.508,1932.784Z" transform="translate(-1398.5 -1566.058)" fill="#333900"/>
    <path id="Path_451" data-name="Path 451" d="M3050.26,1933.17a.534.534,0,0,0-1.052.179l9.3,54.712a.533.533,0,0,0,1.052-.179Z" transform="translate(-1843.467 -1566.017)" fill="#333900"/>
    <path id="Path_452" data-name="Path 452" d="M2777.476,2006.19h-19.4a.533.533,0,0,0,0,1.066h19.4a.533.533,0,1,0,0-1.066Z" transform="translate(-1570.412 -1634.795)" fill="#333900"/>
    <path id="Path_453" data-name="Path 453" d="M2754.771,2129.5h-22.377a.533.533,0,1,0,0,1.067h22.377a.533.533,0,0,0,0-1.067Z" transform="translate(-1546.37 -1750.238)" fill="#333900"/>
    <path id="Path_454" data-name="Path 454" d="M2727.135,2252.81h-25.581a.533.533,0,1,0,0,1.067h25.581a.533.533,0,0,0,0-1.067Z" transform="translate(-1517.497 -1865.682)" fill="#333900"/>
    <path id="Path_455" data-name="Path 455" d="M2701.115,2376.12h-28.721a.533.533,0,0,0,0,1.067h28.721a.533.533,0,1,0,0-1.067Z" transform="translate(-1490.198 -1981.126)" fill="#333900"/>
    <path id="Path_456" data-name="Path 456" d="M2675.58,2499.42H2643.5a.534.534,0,0,0,0,1.067h32.076a.534.534,0,0,0,0-1.067Z" transform="translate(-1463.168 -2096.56)" fill="#333900"/>
    <path id="Path_457" data-name="Path 457" d="M2654.517,2622.73h-34.939a.534.534,0,0,0,0,1.067h34.939a.534.534,0,0,0,0-1.067Z" transform="translate(-1440.769 -2212.004)" fill="#333900"/>
    <path id="Path_458" data-name="Path 458" d="M2843.131,1293.247a3.548,3.548,0,0,0-1.491-2.288l-.689-.473a.208.208,0,1,0-.235.342l.688.473a3.137,3.137,0,0,1,1.319,2.023l.531,2.83a.207.207,0,0,0,.2.169.19.19,0,0,0,.039,0,.208.208,0,0,0,.166-.242Z" transform="translate(-1648.197 -964.714)" fill="#ff5b00"/>
    <path id="Path_459" data-name="Path 459" d="M2820.291,1400.707a.208.208,0,0,0-.255.143l-3.029,10.68-.88-.419a.208.208,0,1,0-.179.375l1.1.525a.209.209,0,0,0,.175,0,.208.208,0,0,0,.114-.133l3.1-10.916a.207.207,0,0,0-.145-.257Z" transform="translate(-1624.974 -1067.93)" fill="#ff5b00"/>
    <path id="Path_460" data-name="Path 460" d="M2864.272,1458.216l-1.924,2.212a.207.207,0,0,0,.156.344.2.2,0,0,0,.157-.071l1.924-2.209a.208.208,0,1,0-.313-.273Z" transform="translate(-1668.485 -1121.707)" fill="#ff5b00"/>
  </g>
</svg>
