<svg xmlns="http://www.w3.org/2000/svg" width="152.505" height="164.964" viewBox="0 0 152.505 164.964">
  <g id="_09" data-name="09" transform="translate(-1138.18 -260)">
    <ellipse id="Ellipse_9" data-name="Ellipse 9" cx="65.396" cy="8.183" rx="65.396" ry="8.183" transform="translate(1144.796 408.597)" fill="#ffe3c2"/>
    <ellipse id="Ellipse_10" data-name="Ellipse 10" cx="76.253" cy="64.059" rx="76.253" ry="64.059" transform="translate(1138.18 260)" fill="#ffe3c2"/>
    <path id="Path_295" data-name="Path 295" d="M1273.657,413.919V432.2h-17.771V414.36h-8.326v9.666h-5.08V407.457h-12.645V414.1h-9.386V396.72h-8.15v15.342h-6.945V404.9h-6.3v7.927h-4.181v-2.813h-22.219v48.3h-6.137V435.568h-20.2v12.8h-8c-.084,1.237-.133,2.483-.133,3.737,0,35.379,34.14,64.059,76.253,64.059s76.253-28.678,76.253-64.059c0-14.368-5.631-27.631-15.14-38.317Z" transform="translate(0 -128.045)" fill="#fff5e2"/>
    <path id="Path_296" data-name="Path 296" d="M1300.53,1696.9c31.735,0,58.937-16.288,70.42-39.453H1230.11C1241.593,1680.615,1268.8,1696.9,1300.53,1696.9Z" transform="translate(-86.097 -1308.785)" fill="#ffe3c2"/>
    <path id="Path_297" data-name="Path 297" d="M1331,504.663q-1.617-1.306-3.324-2.533v69.978H1226.131V503.984q-1.713,1.342-3.324,2.766v65.358H1206.2q.7,1.684,1.517,3.324h140.84q.813-1.639,1.517-3.324H1331Z" transform="translate(-63.704 -226.767)" fill="#ffcc9c"/>
    <path id="Path_298" data-name="Path 298" d="M1444.31,639.521h1.5V574.11l-1.5,1.42Z" transform="translate(-286.707 -294.18)" fill="#ffb083"/>
    <path id="Path_299" data-name="Path 299" d="M3109.75,555.1h1.5V485.122l-1.5-1.152Z" transform="translate(-1846.478 -209.76)" fill="#ffb083"/>
    <rect id="Rectangle_91" data-name="Rectangle 91" width="4.696" height="63.373" transform="translate(1190.367 281.968)" fill="#ffebd6"/>
    <rect id="Rectangle_92" data-name="Rectangle 92" width="4.696" height="65.93" transform="translate(1237.8 279.411)" fill="#ffebd6"/>
    <rect id="Rectangle_93" data-name="Rectangle 93" width="3.452" height="58.95" transform="translate(1252.469 286.391)" fill="#ffebd6"/>
    <rect id="Rectangle_94" data-name="Rectangle 94" width="3.452" height="59.282" transform="translate(1226.387 286.059)" fill="#ffebd6"/>
    <rect id="Rectangle_95" data-name="Rectangle 95" width="3.452" height="76.669" transform="translate(1217.054 268.672)" fill="#ffebd6"/>
    <rect id="Rectangle_96" data-name="Rectangle 96" width="2.877" height="6.979" transform="translate(1175.694 286.059)" fill="#fffffe"/>
    <rect id="Rectangle_97" data-name="Rectangle 97" width="2.877" height="6.979" transform="translate(1175.694 298.371)" fill="#fffffe"/>
    <rect id="Rectangle_98" data-name="Rectangle 98" width="2.877" height="6.979" transform="translate(1181.448 286.059)" fill="#fffffe"/>
    <rect id="Rectangle_99" data-name="Rectangle 99" width="2.877" height="6.979" transform="translate(1181.448 298.371)" fill="#fffffe"/>
    <rect id="Rectangle_100" data-name="Rectangle 100" width="1.558" height="3.781" transform="translate(1208.664 288.725)" fill="#fffffe"/>
    <rect id="Rectangle_101" data-name="Rectangle 101" width="1.558" height="3.781" transform="translate(1208.664 295.395)" fill="#fffffe"/>
    <rect id="Rectangle_102" data-name="Rectangle 102" width="1.558" height="3.781" transform="translate(1208.664 303.204)" fill="#fffffe"/>
    <rect id="Rectangle_103" data-name="Rectangle 103" width="1.558" height="3.781" transform="translate(1208.664 309.874)" fill="#fffffe"/>
    <rect id="Rectangle_104" data-name="Rectangle 104" width="1.558" height="3.781" transform="translate(1208.664 316.897)" fill="#fffffe"/>
    <rect id="Rectangle_105" data-name="Rectangle 105" width="1.558" height="3.781" transform="translate(1208.664 323.566)" fill="#fffffe"/>
    <rect id="Rectangle_106" data-name="Rectangle 106" width="1.558" height="3.781" transform="translate(1232.261 282.55)" fill="#fffffe"/>
    <rect id="Rectangle_107" data-name="Rectangle 107" width="1.558" height="3.781" transform="translate(1232.261 289.219)" fill="#fffffe"/>
    <rect id="Rectangle_108" data-name="Rectangle 108" width="1.558" height="3.781" transform="translate(1232.261 297.029)" fill="#fffffe"/>
    <rect id="Rectangle_109" data-name="Rectangle 109" width="1.558" height="3.781" transform="translate(1232.261 303.698)" fill="#fffffe"/>
    <rect id="Rectangle_110" data-name="Rectangle 110" width="1.558" height="3.781" transform="translate(1232.261 310.721)" fill="#fffffe"/>
    <rect id="Rectangle_111" data-name="Rectangle 111" width="1.558" height="3.781" transform="translate(1232.261 317.391)" fill="#fffffe"/>
    <rect id="Rectangle_112" data-name="Rectangle 112" width="1.558" height="3.781" transform="translate(1203.971 288.725)" fill="#fffffe"/>
    <rect id="Rectangle_113" data-name="Rectangle 113" width="1.558" height="3.781" transform="translate(1203.971 295.395)" fill="#fffffe"/>
    <rect id="Rectangle_114" data-name="Rectangle 114" width="1.558" height="3.781" transform="translate(1203.971 303.204)" fill="#fffffe"/>
    <rect id="Rectangle_115" data-name="Rectangle 115" width="1.558" height="3.781" transform="translate(1203.971 309.874)" fill="#fffffe"/>
    <rect id="Rectangle_116" data-name="Rectangle 116" width="1.558" height="3.781" transform="translate(1203.971 316.897)" fill="#fffffe"/>
    <rect id="Rectangle_117" data-name="Rectangle 117" width="1.558" height="3.781" transform="translate(1203.971 323.566)" fill="#fffffe"/>
    <g id="Group_8" data-name="Group 8" transform="translate(1162.427 267.075)" opacity="0.41">
      <path id="Path_300" data-name="Path 300" d="M1520.33,428v21.775h39.925l60.921-44.531v-26.6L1607.2,371.51Z" transform="translate(-1520.33 -371.51)" fill="#fff"/>
    </g>
    <rect id="Rectangle_118" data-name="Rectangle 118" width="63.314" height="122.719" rx="31.657" transform="translate(1174.701 287.196)" fill="#666800"/>
    <rect id="Rectangle_119" data-name="Rectangle 119" width="52.953" height="99.523" rx="26.476" transform="translate(1179.881 293.92)" fill="#333900"/>
    <path id="Path_301" data-name="Path 301" d="M2126.938,1446.65a7.186,7.186,0,0,0-7.178,7.178v5.2a1.015,1.015,0,0,0,2.03,0v-5.2a5.146,5.146,0,1,1,10.292,0v5.2a1.015,1.015,0,0,0,2.03,0v-5.2A7.186,7.186,0,0,0,2126.938,1446.65Z" transform="translate(-919.301 -1111.36)" fill="#7e1518"/>
    <path id="Path_302" data-name="Path 302" d="M2110.118,1419.74a8.327,8.327,0,0,0-8.318,8.318v6.027a1.177,1.177,0,1,0,2.355,0v-6.027a5.964,5.964,0,1,1,11.928,0v6.027a1.178,1.178,0,0,0,2.355,0v-6.027A8.331,8.331,0,0,0,2110.118,1419.74Z" transform="translate(-902.48 -1086.157)" fill="#ff8b00"/>
    <rect id="Rectangle_120" data-name="Rectangle 120" width="23.652" height="20.751" transform="translate(1195.812 350.714)" fill="#ff9700"/>
    <rect id="Rectangle_121" data-name="Rectangle 121" width="23.652" height="20.751" transform="translate(1195.812 347.925)" fill="#ffce00"/>
    <rect id="Rectangle_122" data-name="Rectangle 122" width="2.424" height="14.616" rx="1.212" transform="translate(1215.516 350.714)" fill="#ffe559"/>
    <path id="Path_303" data-name="Path 303" d="M2213.232,1753.84a1.332,1.332,0,1,0,1.332,1.333A1.333,1.333,0,0,0,2213.232,1753.84Z" transform="translate(-1005.595 -1399.059)" fill="#7e1518"/>
    <path id="Path_304" data-name="Path 304" d="M2208.934,1749.26a1.623,1.623,0,1,0,1.622,1.623A1.623,1.623,0,0,0,2208.934,1749.26Zm0,2.665a1.042,1.042,0,1,1,1.041-1.042,1.042,1.042,0,0,1-1.041,1.042Z" transform="translate(-1001.296 -1394.77)" fill="#7e1518"/>
    <path id="Path_305" data-name="Path 305" d="M2228.61,1770.25a.291.291,0,0,0-.291.291v5.71a.291.291,0,0,0,.581,0v-5.71A.29.29,0,0,0,2228.61,1770.25Z" transform="translate(-1020.973 -1414.428)" fill="#7e1518"/>
    <path id="Path_306" data-name="Path 306" d="M2150.463,951.754a1.979,1.979,0,0,0-.627-.411,2.162,2.162,0,0,0-1.594,0,1.911,1.911,0,0,0-1.044,1.03,1.892,1.892,0,0,0-.149.75v.011a1.92,1.92,0,0,0,.147.749,1.832,1.832,0,0,0,.411.609,1.968,1.968,0,0,0,.627.41,2.161,2.161,0,0,0,1.594,0,1.916,1.916,0,0,0,.63-.416,1.941,1.941,0,0,0,.414-.614,1.891,1.891,0,0,0,.149-.751v-.01a1.919,1.919,0,0,0-.147-.75A1.825,1.825,0,0,0,2150.463,951.754Zm-.3,1.38a1.22,1.22,0,0,1-.083.45,1.184,1.184,0,0,1-.229.371,1.039,1.039,0,0,1-.355.254,1.116,1.116,0,0,1-.454.091,1.078,1.078,0,0,1-.456-.094,1.123,1.123,0,0,1-.593-.627,1.246,1.246,0,0,1-.083-.454v-.01a1.218,1.218,0,0,1,.083-.451,1.169,1.169,0,0,1,.23-.371,1.049,1.049,0,0,1,.352-.254,1.122,1.122,0,0,1,.456-.09,1.1,1.1,0,0,1,.454.093,1.115,1.115,0,0,1,.595.627,1.242,1.242,0,0,1,.083.454Z" transform="translate(-944.859 -647.336)" fill="#666800"/>
    <path id="Path_307" data-name="Path 307" d="M2214.44,952.958h1.137v2.978h.822v-2.978h1.137V952.2h-3.1Z" transform="translate(-1007.974 -648.281)" fill="#666800"/>
    <path id="Path_308" data-name="Path 308" d="M2275.736,952.554a1.278,1.278,0,0,0-.448-.264,1.8,1.8,0,0,0-.6-.093h-1.527v3.736h.825v-1.121h.624a2.041,2.041,0,0,0,.59-.082,1.4,1.4,0,0,0,.48-.248,1.164,1.164,0,0,0,.323-.411,1.307,1.307,0,0,0,.117-.571v-.011a1.348,1.348,0,0,0-.1-.526A1.158,1.158,0,0,0,2275.736,952.554Zm-.451.963a.535.535,0,0,1-.171.4.667.667,0,0,1-.481.163h-.651V952.94h.635a.761.761,0,0,1,.488.144.511.511,0,0,1,.179.422Z" transform="translate(-1062.968 -648.278)" fill="#666800"/>
    <rect id="Rectangle_123" data-name="Rectangle 123" width="29.014" height="6.219" transform="translate(1193.163 311.716)" fill="#fffff4"/>
    <rect id="Rectangle_124" data-name="Rectangle 124" width="9.294" height="1.992" transform="translate(1203.023 323.093)" fill="#4c6000"/>
    <path id="Path_309" data-name="Path 309" d="M2053.766,1109a1.027,1.027,0,1,0,1.027,1.027A1.026,1.026,0,0,0,2053.766,1109Z" transform="translate(-856.533 -795.133)" fill="#4c6000"/>
    <path id="Path_310" data-name="Path 310" d="M2131.9,1109a1.026,1.026,0,1,0,.726.3A1.026,1.026,0,0,0,2131.9,1109Z" transform="translate(-929.706 -795.133)" fill="#4c6000"/>
    <path id="Path_311" data-name="Path 311" d="M2210.027,1109a1.026,1.026,0,1,0,.726.3A1.026,1.026,0,0,0,2210.027,1109Z" transform="translate(-1002.879 -795.133)" fill="#4c6000"/>
    <path id="Path_312" data-name="Path 312" d="M2288.157,1109a1.027,1.027,0,1,0,1.027,1.027A1.027,1.027,0,0,0,2288.157,1109Z" transform="translate(-1076.052 -795.133)" fill="#4c6000"/>
    <path id="Path_313" data-name="Path 313" d="M2366.277,1109a1.027,1.027,0,1,0,1.027,1.027A1.027,1.027,0,0,0,2366.277,1109Z" transform="translate(-1149.215 -795.133)" fill="#4c6000"/>
    <g id="Group_9" data-name="Group 9" transform="translate(1179.881 302.099)" opacity="0.3">
      <path id="Path_314" data-name="Path 314" d="M1795.43,997.166l52.952-33.327V923.53l-52.952,30.687Z" transform="translate(-1795.43 -923.53)" fill="#fff"/>
    </g>
    <path id="Path_315" data-name="Path 315" d="M1615.865,1537.472l.577-11.433.463-7.8-3.388,10.364a28.666,28.666,0,0,0-1.357,7.037l-.692,10.586-.578,29.143h3.528l5.837-13.442-3.045-11.537A42.256,42.256,0,0,1,1615.865,1537.472Z" transform="translate(-442.717 -1178.407)" fill="#eac754"/>
    <path id="Path_316" data-name="Path 316" d="M1625.076,1730.461l.419-8.312.337-5.669-2.464,7.534a20.864,20.864,0,0,0-.987,5.116l-.5,7.7-.421,21.187h2.565l4.245-9.771-2.215-8.387A30.743,30.743,0,0,1,1625.076,1730.461Z" transform="translate(-452.617 -1364.07)" fill="#666800"/>
    <path id="Path_317" data-name="Path 317" d="M1457.08,1545.892l-.34-.613a17.68,17.68,0,0,1-2.157-7.126l-.515-6.3a8.339,8.339,0,0,0-1.9-4.651h0a16.949,16.949,0,0,1-3.135-5.736l-1.02-3.225v7.946a6.415,6.415,0,0,1-.152,1.391l-.254,1.158a18.463,18.463,0,0,0,.317,9.225c.457,1.549.952,3.312,1.346,4.747a12.739,12.739,0,0,1,.254,5.669l-.221,1.215a17.583,17.583,0,0,0,.17,7.113l4.327,18.666h7.287l-.635-17.362A27.023,27.023,0,0,0,1457.08,1545.892Z" transform="translate(-289.38 -1178.407)" fill="#eac754"/>
    <path id="Path_318" data-name="Path 318" d="M1478.874,1643.468l-.285-.539a16.132,16.132,0,0,1-1.808-6.272l-.432-5.545a7.536,7.536,0,0,0-1.593-4.093h0a15.156,15.156,0,0,1-2.629-5.049l-.855-2.839v6.993a5.913,5.913,0,0,1-.127,1.224l-.216,1.02a17.037,17.037,0,0,0,.266,8.121c.381,1.363.8,2.915,1.129,4.178a11.746,11.746,0,0,1,.211,4.99l-.185,1.07a16.229,16.229,0,0,0,.144,6.26l3.627,16.428h6.11l-.531-15.282A24.687,24.687,0,0,0,1478.874,1643.468Z" transform="translate(-311.293 -1272.896)" fill="#666800"/>
    <path id="Path_319" data-name="Path 319" d="M1625.026,2015.036a7.778,7.778,0,0,0-3.129,6.236h0a2.436,2.436,0,0,1-1.117,2.051l-.127.082a15.932,15.932,0,0,0-5.566,6.231l-4.177,8.354h4.684l2.766-1.054a10.2,10.2,0,0,0,6.493-8.273l.206-1.658a12.311,12.311,0,0,1,1.54-4.6l.848-1.478a8.71,8.71,0,0,0,1.157-4.337V2012.2A37.731,37.731,0,0,1,1625.026,2015.036Z" transform="translate(-442.736 -1641.027)" fill="#eac754"/>
    <path id="Path_320" data-name="Path 320" d="M1647.443,2113.215a5.89,5.89,0,0,0-2.369,4.72h0a1.84,1.84,0,0,1-.845,1.551l-.1.063a12.062,12.062,0,0,0-4.212,4.716l-3.161,6.322h3.545l2.094-.8a7.723,7.723,0,0,0,4.914-6.261l.156-1.254a9.325,9.325,0,0,1,1.165-3.486l.643-1.119a6.588,6.588,0,0,0,.875-3.282v-3.318A28.425,28.425,0,0,1,1647.443,2113.215Z" transform="translate(-466.946 -1733.624)" fill="#b3b300"/>
    <path id="Path_321" data-name="Path 321" d="M1340.238,1837.593h0a21.549,21.549,0,0,1-3.243-6.027l-4.995-14.4.622,13.3a56.06,56.06,0,0,0,5.5,21.716l1.515,3.144h8.673l-1.586-5.153a40.163,40.163,0,0,0-6.482-12.587Z" transform="translate(-181.523 -1458.371)" fill="#eac754"/>
    <path id="Path_322" data-name="Path 322" d="M1387.876,1977.264h0a16.377,16.377,0,0,1-2.464-4.58l-3.792-10.934.473,10.106a42.593,42.593,0,0,0,4.174,16.5l1.151,2.389h6.589l-1.206-3.914A30.509,30.509,0,0,0,1387.876,1977.264Z" transform="translate(-227.994 -1593.778)" fill="#b3b300"/>
    <path id="Path_323" data-name="Path 323" d="M1396.721,2432.334h12.317l5.725-20.685h-24.4Z" transform="translate(-236.18 -2015.133)" fill="#bb3618"/>
    <path id="Path_324" data-name="Path 324" d="M1417.082,2498.549h16.371l2.433-8.789H1414.38Z" transform="translate(-258.676 -2088.287)" fill="#7e1518"/>
    <path id="Path_325" data-name="Path 325" d="M2000.883,2222.219c-.677-1.39-3.431-6.912-4.553-7.1-1.426,1,1.142,19.675,5.347,22.524,4.11,2.125-.634-15.017-.7-15.228Z" transform="translate(-803.331 -1831.072)" fill="#747900"/>
    <path id="Path_326" data-name="Path 326" d="M2075.48,2330.17h0l.054.112Z" transform="translate(-877.83 -1938.822)" fill="#747900"/>
    <path id="Path_327" data-name="Path 327" d="M2100.891,2236.662c.428,7.7,5.132,2.638,4.99-1s1.069-12.4,1.069-12.4S2100.464,2228.963,2100.891,2236.662Z" transform="translate(-901.61 -1838.696)" fill="#747900"/>
    <path id="Path_328" data-name="Path 328" d="M2089.943,2246.7a28.6,28.6,0,0,0,4.632-22.312C2095.29,2227.883,2082.814,2234.441,2089.943,2246.7Z" transform="translate(-889.308 -1839.754)" fill="#666800"/>
    <path id="Path_329" data-name="Path 329" d="M2208.671,2318.4c-.641,4.632,5.917-3.635,7.984-10.265C2216.655,2308.13,2209.313,2313.761,2208.671,2318.4Z" transform="translate(-1002.53 -1918.181)" fill="#747900"/>
    <path id="Path_330" data-name="Path 330" d="M2071.622,2091.974c-.641-3.279-3.136,3.635-3.136,3.635-1.568,5.133,3.493,18.321,2.566,10.835C2069.127,2099.532,2072.263,2095.255,2071.622,2091.974Z" transform="translate(-870.995 -1714.913)" fill="#ccdb00"/>
    <path id="Path_331" data-name="Path 331" d="M2167.663,2324.6c8.839-1.5,10.194-16.467,10.194-16.467C2174.364,2317.041,2165.025,2321.389,2167.663,2324.6Z" transform="translate(-963.731 -1918.181)" fill="#666800"/>
    <path id="Path_332" data-name="Path 332" d="M2201.09,2457.966c6.059-2,11.548-4.632,12.19-6.916C2213.28,2451.051,2202.373,2452.62,2201.09,2457.966Z" transform="translate(-995.471 -2052.033)" fill="#ccdb00"/>
    <path id="Path_333" data-name="Path 333" d="M1924.66,2301.64c.071,2.923,1.355,15.4,10.693,16.538A33.254,33.254,0,0,1,1924.66,2301.64Z" transform="translate(-736.58 -1912.102)" fill="#666800"/>
    <path id="Path_334" data-name="Path 334" d="M1922.41,2299.39c2.709,12.761,8.555,15.683,9.41,14.044C1930.893,2306.02,1922.41,2299.39,1922.41,2299.39Z" transform="translate(-734.472 -1909.995)" fill="#747900"/>
    <path id="Path_335" data-name="Path 335" d="M1853.85,2412.5c-1.069,2.21,9.124,10.977,14.97,10.336C1868.82,2422.836,1860.694,2413.783,1853.85,2412.5Z" transform="translate(-670.19 -2015.929)" fill="#b3b300"/>
    <path id="Path_336" data-name="Path 336" d="M2017.69,2641.347a1.777,1.777,0,0,0,1.729,1.357h6.947a1.776,1.776,0,0,0,1.752-1.471l1.425-8.081-13.873-.072Z" transform="translate(-821.815 -2222.513)" fill="#bb3618"/>
    <path id="Path_337" data-name="Path 337" d="M2174.775,2462.555c-1.426,2.139,11.691-.357,13.615-6.986a12.128,12.128,0,0,1-5.275,2.067A13.824,13.824,0,0,0,2174.775,2462.555Z" transform="translate(-970.724 -2056.266)" fill="#b3b300"/>
    <path id="Path_338" data-name="Path 338" d="M2060.113,2154.46c-2,3.493-1,12.9-.285,19.461s1.639,8.483,3.207,6.986c.856-1.853,2.567-10.479-.571-15.754A17.888,17.888,0,0,1,2060.113,2154.46Z" transform="translate(-862.338 -1774.261)" fill="#b3b300"/>
    <path id="Path_339" data-name="Path 339" d="M2118.847,2286.749c-1.142,4.491-4.847,7.771-4.918,8.058,0,0-.713,4.705,3.778,1.354s3.849-15.683,3.208-18.962S2119.985,2282.258,2118.847,2286.749Z" transform="translate(-913.8 -1888.515)" fill="#b3b300"/>
    <path id="Path_340" data-name="Path 340" d="M2130.25,2283.8c-1.212,6.844-3.35,9.41-3.35,9.41s6.2-6.416,6.059-18.534C2132.959,2274.68,2131.462,2276.961,2130.25,2283.8Z" transform="translate(-925.988 -1886.853)" fill="#ccdb00"/>
    <path id="Path_341" data-name="Path 341" d="M1924.308,2184.79c-2.21,3.493,7.343,21.956,10.836,24.594C1935.144,2209.384,1929.441,2186.5,1924.308,2184.79Z" transform="translate(-735.943 -1802.667)" fill="#b3b300"/>
    <path id="Path_342" data-name="Path 342" d="M2009.051,2572.87l-14.993-.181a.922.922,0,0,0-.857,1.292l.9,2.058a.924.924,0,0,0,.846.554h13.483a.922.922,0,0,0,.877-.635l.614-1.876a.923.923,0,0,0-.866-1.212Z" transform="translate(-800.699 -2165.954)" fill="#bb3618"/>
    <path id="Path_343" data-name="Path 343" d="M2016.338,2635.854l13.2-2.773H2015.66Z" transform="translate(-821.806 -2222.513)" fill="#7e1518"/>
    <path id="Path_344" data-name="Path 344" d="M2700.2,2584.46v-3.811h-5.072v4.155l-5.41,2.066a2.377,2.377,0,0,0-1.3,1.206h0a.92.92,0,0,0,.832,1.314h9.191a2.336,2.336,0,0,0,2.266-2.9Z" transform="translate(-1451.799 -2173.41)" fill="#ff7951"/>
    <path id="Path_345" data-name="Path 345" d="M2795.51,2582.455l5.072,2.005v-3.811h-5.072Z" transform="translate(-1552.176 -2173.41)" fill="#ff5518"/>
    <path id="Path_346" data-name="Path 346" d="M2921.793,2581.663l-.489-4.223-5.62.651.533,4.6-5.731,2.982a2.655,2.655,0,0,0-1.29,1.506h0a1.027,1.027,0,0,0,1.091,1.349l10.186-1.18a2.606,2.606,0,0,0,2.139-3.507Z" transform="translate(-1658.598 -2170.404)" fill="#ff9a74"/>
    <path id="Path_347" data-name="Path 347" d="M3012.25,2578.131l.232,2,5.877,1.572-.489-4.223Z" transform="translate(-1755.164 -2170.441)" fill="#ff5518"/>
    <path id="Path_348" data-name="Path 348" d="M2762.938,1815.2l.564,27,7.574.516,6.465-52.307-14.882,1.032Z" transform="translate(-1521.41 -1433.309)" fill="#4c5200"/>
    <path id="Path_349" data-name="Path 349" d="M2868.96,1773.51l-14.62,2.588,4.127,25.436,5.508,25.659,7.074-.744-1.579-27.6Z" transform="translate(-1607.273 -1417.481)" fill="#4c6000"/>
    <path id="Path_350" data-name="Path 350" d="M2762.5,1803.347l3.212.645a1.819,1.819,0,0,1,1.366,1.2l3.7,10.922-1.3-8.89a3.625,3.625,0,0,1,3.244-4.134l10.321-.982-.067-3.358Z" transform="translate(-1521.26 -1441.12)" fill="#333900"/>
    <path id="Path_351" data-name="Path 351" d="M2560.274,1399.408a10.836,10.836,0,0,1-3.86,3.382l-6.614,3.447,5.453,4.811a5.369,5.369,0,0,0,2.486,1.235h0a5.365,5.365,0,0,0,4.984-1.6l6.509-6.979-8.925-4.344Z" transform="translate(-1322.056 -1067.07)" fill="#ff7951"/>
    <path id="Path_352" data-name="Path 352" d="M2695.5,1272.169a4.64,4.64,0,0,0-1.716,1.747l-2.817,5.044,5.736,2.982,1.167-5.157-1.445-5.154Z" transform="translate(-1454.269 -947.444)" fill="#ff8b00"/>
    <path id="Path_353" data-name="Path 353" d="M2705.571,1400.11l-.631.808,5.38,3.49.066-.976-.666-1.423Z" transform="translate(-1467.353 -1067.773)" fill="#ff5518"/>
    <path id="Path_354" data-name="Path 354" d="M2774.321,1255.422l2.122-15.291a4.42,4.42,0,0,0-3.759-4.984l-5.635-.8-10.039,2.365-.458,3.025a79.788,79.788,0,0,0-.428,20.561l-.035,14.455,22.457-3.312-3.792-11.236A16.229,16.229,0,0,1,2774.321,1255.422Z" transform="translate(-1514.852 -912.53)" fill="#ff7900"/>
    <path id="Path_355" data-name="Path 355" d="M2426.88,1194.26l3.519,14.759,5.3,1.67-3.388-14.894Z" transform="translate(-1206.935 -874.983)" fill="#bb3618"/>
    <path id="Path_356" data-name="Path 356" d="M2426.88,1194.26l3.519,14.759,4.28,1.42-3.388-14.894Z" transform="translate(-1206.935 -874.983)" fill="#310000"/>
    <path id="Path_357" data-name="Path 357" d="M2453.11,1278.008a4.155,4.155,0,0,0,.317-4.148l-.138-.287a1.317,1.317,0,0,0-2.461.239l-.577,2.213v3.813a6.635,6.635,0,0,0,2.05,4.8l2.361,2.259-2.685-7.224Z" transform="translate(-1228.822 -948.565)" fill="#ff7951"/>
    <path id="Path_358" data-name="Path 358" d="M2456.83,1269.636a.254.254,0,0,0-.338.119l-1.661,3.458a.253.253,0,1,0,.456.219l1.661-3.458A.254.254,0,0,0,2456.83,1269.636Z" transform="translate(-1233.09 -945.553)" fill="#ff5518"/>
    <path id="Path_359" data-name="Path 359" d="M2464.766,1288.749a.254.254,0,0,0-.343.1l-2.269,4.194a.254.254,0,0,0,.1.343.247.247,0,0,0,.12.031.254.254,0,0,0,.223-.133l2.269-4.194A.254.254,0,0,0,2464.766,1288.749Z" transform="translate(-1239.942 -963.449)" fill="#ff5518"/>
    <path id="Path_360" data-name="Path 360" d="M2508.926,1349.42l-10.356,9.2-11.84-3.6a3.21,3.21,0,0,1-1.991-1.751l-.278-.615a3.906,3.906,0,0,0-1.9-1.932l-.737-.345.511,2.685-.914.078a3.692,3.692,0,0,1-2.416-.641l-1.592-1.1.326,2.775a2.348,2.348,0,0,0,.3.907l2.056,3.541,3.772,1.662,10.723,4.879a10.445,10.445,0,0,0,4.328.938h.234a10.45,10.45,0,0,0,6.838-2.548l7.6-8.755-1.041-4.839Z" transform="translate(-1254.259 -1020.299)" fill="#ff9a74"/>
    <path id="Path_361" data-name="Path 361" d="M2872.57,1423.975l6.559,4.891,2.583-2.978-7.944-2.978Z" transform="translate(-1624.347 -1089.126)" fill="#ff5518"/>
    <path id="Path_362" data-name="Path 362" d="M2483.466,1407.7l-3.356-1.511A5.89,5.89,0,0,0,2483.466,1407.7Z" transform="translate(-1256.788 -1073.467)" fill="#ff5518"/>
    <path id="Path_363" data-name="Path 363" d="M2479.5,1403.485a5.656,5.656,0,0,1-3.184-1.443.254.254,0,1,0-.344.371,6.071,6.071,0,0,0,3.528,1.579.254.254,0,1,0,0-.508Z" transform="translate(-1252.823 -1069.505)" fill="#ff5518"/>
    <path id="Path_364" data-name="Path 364" d="M2491.176,1445.837l-1.667-.7a.254.254,0,1,0-.2.466l1.667.7a.253.253,0,0,0,.195-.466Z" transform="translate(-1265.242 -1109.917)" fill="#ff5518"/>
    <path id="Path_365" data-name="Path 365" d="M2807.706,1491.029a.22.22,0,1,0-.3.321l1.171,1.087a.215.215,0,0,0,.149.059.22.22,0,0,0,.149-.381Z" transform="translate(-1563.246 -1152.861)" fill="#ff5518"/>
    <path id="Path_366" data-name="Path 366" d="M2766.276,996.214v-8.986a5.3,5.3,0,0,0-10.6,0V992a4.215,4.215,0,0,0,4.214,4.215h1.083v2.665l-1.089.983.916.752a2.347,2.347,0,0,0,2.975.007l3.293-2.678-.8-.353Z" transform="translate(-1514.873 -676.125)" fill="#ff9a74"/>
    <path id="Path_367" data-name="Path 367" d="M2839.18,1195.175l2.62-2.2-2.62.674Z" transform="translate(-1593.075 -873.784)" fill="#ff5518"/>
    <ellipse id="Ellipse_11" data-name="Ellipse 11" cx="5.071" cy="3.271" rx="5.071" ry="3.271" transform="translate(1240.163 302.249)" fill="#7e1518"/>
    <ellipse id="Ellipse_12" data-name="Ellipse 12" cx="2.612" cy="4.416" rx="2.612" ry="4.416" transform="translate(1249.339 304.707)" fill="#7e1518"/>
    <ellipse id="Ellipse_13" data-name="Ellipse 13" cx="1.934" cy="2.96" rx="1.934" ry="2.96" transform="translate(1245.039 305.153) rotate(-73.8)" fill="#7e1518"/>
    <path id="Path_368" data-name="Path 368" d="M2730.813,971.456c-1.416.818-2.131,2.23-1.6,3.155s2.115,1.015,3.53.195,2.131-2.23,1.6-3.155S2732.227,970.639,2730.813,971.456Z" transform="translate(-1489.922 -665.791)" fill="#7e1518"/>
    <path id="Path_369" data-name="Path 369" d="M2839.741,1084.393c-.273.031-.444.473-.386.987s.329.9.6.873.444-.473.386-.987S2840.015,1084.362,2839.741,1084.393Z" transform="translate(-1593.229 -772.086)" fill="#7e1518"/>
    <path id="Path_370" data-name="Path 370" d="M2770.642,1084.135c-.274.013-.477.444-.452.959s.268.925.542.912.477-.444.452-.959S2770.916,1084.122,2770.642,1084.135Z" transform="translate(-1528.461 -771.846)" fill="#7e1518"/>
    <path id="Path_371" data-name="Path 371" d="M2787.2,1074.86a.174.174,0,0,0-.174.174v2.335l-.157.146a1.408,1.408,0,0,0-.132,1.912l.327.4a.177.177,0,0,0,.135.063.172.172,0,0,0,.11-.039.174.174,0,0,0,.025-.244l-.328-.4a1.059,1.059,0,0,1,.1-1.439l.212-.2a.174.174,0,0,0,.055-.127v-2.411A.174.174,0,0,0,2787.2,1074.86Z" transform="translate(-1543.668 -763.159)" fill="#bb3618"/>
    <path id="Path_372" data-name="Path 372" d="M2815.983,1041.34a2.621,2.621,0,0,0-2,.811.534.534,0,0,0,.766.743,1.627,1.627,0,0,1,1.124-.49,1.38,1.38,0,0,1,.938.752.534.534,0,1,0,.906-.566A2.355,2.355,0,0,0,2815.983,1041.34Z" transform="translate(-1569.355 -731.755)" fill="#bb3618"/>
    <path id="Path_373" data-name="Path 373" d="M2746.856,1040.979a2.393,2.393,0,0,0-1.831.741.534.534,0,0,0,.768.742,1.393,1.393,0,0,1,.956-.421,1.178,1.178,0,0,1,.794.644.534.534,0,1,0,.906-.563A2.161,2.161,0,0,0,2746.856,1040.979Z" transform="translate(-1504.765 -731.418)" fill="#bb3618"/>
    <path id="Path_374" data-name="Path 374" d="M2810.082,1158.4a.916.916,0,0,0,1.174-.565l.063-.18-1.579.622Z" transform="translate(-1565.503 -840.706)" fill="#eb2900"/>
    <path id="Path_375" data-name="Path 375" d="M3023.526,1619.4a.22.22,0,0,0-.271.151l-.958,3.356a.219.219,0,1,0,.422.121l.959-3.356A.221.221,0,0,0,3023.526,1619.4Z" transform="translate(-1764.565 -1273.138)" fill="#ff5518"/>
    <path id="Path_376" data-name="Path 376" d="M2899.729,1262.645a2.8,2.8,0,0,0-1.332-1.329h0a2.861,2.861,0,0,0-3.153.472l-.3.273-2.212,3.788a13.144,13.144,0,0,1-5.2,4.991h0l8.073,5.76.761-.894a18.341,18.341,0,0,0,2.919-4.7l.585-1.369a8.493,8.493,0,0,0-.141-6.993Z" transform="translate(-1638.358 -937.528)" fill="#ff8b00"/>
    <path id="Path_377" data-name="Path 377" d="M3042.686,2174.793a.254.254,0,0,0-.347.087l-2.871,4.763a.254.254,0,0,0,.086.347.258.258,0,0,0,.131.036.253.253,0,0,0,.217-.123l2.869-4.763A.254.254,0,0,0,3042.686,2174.793Z" transform="translate(-1780.621 -1793.27)" fill="#333900"/>
    <path id="Path_378" data-name="Path 378" d="M2880.835,2212.312a.254.254,0,0,0-.323.152l-1.228,3.4a.254.254,0,1,0,.476.172l1.228-3.4A.254.254,0,0,0,2880.835,2212.312Z" transform="translate(-1630.614 -1828.428)" fill="#333900"/>
    <path id="Path_379" data-name="Path 379" d="M2900.391,1080.723c-.585-.489-1.7-.122-2.486.821s-.952,2.1-.368,2.592,1.7.122,2.486-.821S2900.976,1081.212,2900.391,1080.723Z" transform="translate(-1647.402 -768.447)" fill="#ff9a74"/>
    <path id="Path_380" data-name="Path 380" d="M2911.976,1097.1a.254.254,0,0,0-.348.088l-.993,1.667a.254.254,0,0,0,.436.26l.993-1.667A.254.254,0,0,0,2911.976,1097.1Z" transform="translate(-1659.968 -783.957)" fill="#ff5518"/>
  </g>
</svg>
